{
	"asset":{
		"generator":"Khronos glTF Blender I/O v5.1.20",
		"version":"2.0"
	},
	"extensionsUsed":[
		"KHR_materials_unlit"
	],
	"scene":0,
	"scenes":[
		{
			"name":"Scene",
			"nodes":[
				0,
				1,
				2,
				3,
				4,
				5,
				6,
				7,
				8,
				9,
				10,
				11
			]
		}
	],
	"nodes":[
		{
			"mesh":0,
			"name":"TOP ARM ARMOR"
		},
		{
			"mesh":1,
			"name":"BELT"
		},
		{
			"mesh":2,
			"name":"FRONT DRESS"
		},
		{
			"mesh":3,
			"name":"BOTTOM DRESS"
		},
		{
			"mesh":4,
			"name":"CHEST PLATE"
		},
		{
			"mesh":5,
			"name":"HAND ARMOR"
		},
		{
			"mesh":6,
			"name":"DRESS ARMOR"
		},
		{
			"mesh":7,
			"name":"ARM ARMOR"
		},
		{
			"mesh":8,
			"name":"BELT LACE"
		},
		{
			"mesh":9,
			"name":"BOTTOM CHESTPLATE"
		},
		{
			"mesh":10,
			"name":"GLOVES"
		},
		{
			"mesh":11,
			"name":"SABER DRESS"
		}
	],
	"materials":[
		{
			"doubleSided":true,
			"extensions":{
				"KHR_materials_unlit":{}
			},
			"name":"TOP ARM ARMOR",
			"pbrMetallicRoughness":{
				"metallicFactor":0,
				"roughnessFactor":0.9
			}
		},
		{
			"doubleSided":true,
			"extensions":{
				"KHR_materials_unlit":{}
			},
			"name":"BELT",
			"pbrMetallicRoughness":{
				"metallicFactor":0,
				"roughnessFactor":0.9
			}
		},
		{
			"doubleSided":true,
			"extensions":{
				"KHR_materials_unlit":{}
			},
			"name":"DRESS FLOP",
			"pbrMetallicRoughness":{
				"metallicFactor":0,
				"roughnessFactor":0.9
			}
		},
		{
			"doubleSided":true,
			"extensions":{
				"KHR_materials_unlit":{}
			},
			"name":"BOTTOM DRESS",
			"pbrMetallicRoughness":{
				"metallicFactor":0,
				"roughnessFactor":0.9
			}
		},
		{
			"doubleSided":true,
			"extensions":{
				"KHR_materials_unlit":{}
			},
			"name":"CHEST ARMOR",
			"pbrMetallicRoughness":{
				"metallicFactor":0,
				"roughnessFactor":0.9
			}
		},
		{
			"doubleSided":true,
			"extensions":{
				"KHR_materials_unlit":{}
			},
			"name":"HAND ARMOR",
			"pbrMetallicRoughness":{
				"metallicFactor":0,
				"roughnessFactor":0.9
			}
		},
		{
			"doubleSided":true,
			"extensions":{
				"KHR_materials_unlit":{}
			},
			"name":"BOTTOM DRESS ARMOR",
			"pbrMetallicRoughness":{
				"metallicFactor":0,
				"roughnessFactor":0.9
			}
		},
		{
			"doubleSided":true,
			"extensions":{
				"KHR_materials_unlit":{}
			},
			"name":"BOT ARM ARMOR",
			"pbrMetallicRoughness":{
				"metallicFactor":0,
				"roughnessFactor":0.9
			}
		},
		{
			"doubleSided":true,
			"extensions":{
				"KHR_materials_unlit":{}
			},
			"name":"BELT LACE",
			"pbrMetallicRoughness":{
				"metallicFactor":0,
				"roughnessFactor":0.9
			}
		},
		{
			"doubleSided":true,
			"extensions":{
				"KHR_materials_unlit":{}
			},
			"name":"BOTTOM CHEST ARMOR",
			"pbrMetallicRoughness":{
				"metallicFactor":0,
				"roughnessFactor":0.9
			}
		},
		{
			"doubleSided":true,
			"extensions":{
				"KHR_materials_unlit":{}
			},
			"name":"GLOVES",
			"pbrMetallicRoughness":{
				"metallicFactor":0,
				"roughnessFactor":0.9
			}
		},
		{
			"doubleSided":true,
			"extensions":{
				"KHR_materials_unlit":{}
			},
			"name":"SABER DRESS",
			"pbrMetallicRoughness":{
				"metallicFactor":0,
				"roughnessFactor":0.9
			}
		}
	],
	"meshes":[
		{
			"name":"Plane.147",
			"primitives":[
				{
					"attributes":{
						"POSITION":0,
						"NORMAL":1,
						"TEXCOORD_0":2,
						"COLOR_0":3,
						"COLOR_1":4
					},
					"indices":5,
					"material":0
				}
			]
		},
		{
			"name":"Plane.071",
			"primitives":[
				{
					"attributes":{
						"POSITION":6,
						"NORMAL":7,
						"TEXCOORD_0":8,
						"COLOR_0":9,
						"COLOR_1":10
					},
					"indices":11,
					"material":1
				}
			]
		},
		{
			"name":"Plane.068",
			"primitives":[
				{
					"attributes":{
						"POSITION":12,
						"NORMAL":13,
						"TEXCOORD_0":14,
						"COLOR_0":15,
						"COLOR_1":16
					},
					"indices":17,
					"material":2
				}
			]
		},
		{
			"name":"Plane.061",
			"primitives":[
				{
					"attributes":{
						"POSITION":18,
						"NORMAL":19,
						"TEXCOORD_0":20,
						"COLOR_0":21,
						"COLOR_1":22
					},
					"indices":23,
					"material":3
				}
			]
		},
		{
			"name":"Plane.057",
			"primitives":[
				{
					"attributes":{
						"POSITION":24,
						"NORMAL":25,
						"TEXCOORD_0":26,
						"COLOR_0":27,
						"COLOR_1":28
					},
					"indices":29,
					"material":4
				}
			]
		},
		{
			"name":"Plane.032",
			"primitives":[
				{
					"attributes":{
						"POSITION":30,
						"NORMAL":31,
						"TEXCOORD_0":32,
						"COLOR_0":33,
						"COLOR_1":34
					},
					"indices":35,
					"material":5
				}
			]
		},
		{
			"name":"Plane.003",
			"primitives":[
				{
					"attributes":{
						"POSITION":36,
						"NORMAL":37,
						"TEXCOORD_0":38,
						"COLOR_0":39,
						"COLOR_1":40
					},
					"indices":41,
					"material":6
				}
			]
		},
		{
			"name":"Plane.008",
			"primitives":[
				{
					"attributes":{
						"POSITION":42,
						"NORMAL":43,
						"TEXCOORD_0":44,
						"COLOR_0":45,
						"COLOR_1":46
					},
					"indices":47,
					"material":7
				}
			]
		},
		{
			"name":"Plane.006",
			"primitives":[
				{
					"attributes":{
						"POSITION":48,
						"NORMAL":49,
						"TEXCOORD_0":50,
						"COLOR_0":51,
						"COLOR_1":52
					},
					"indices":53,
					"material":8
				}
			]
		},
		{
			"name":"Plane.005",
			"primitives":[
				{
					"attributes":{
						"POSITION":54,
						"NORMAL":55,
						"TEXCOORD_0":56,
						"COLOR_0":57,
						"COLOR_1":58
					},
					"indices":59,
					"material":9
				}
			]
		},
		{
			"name":"Plane.002",
			"primitives":[
				{
					"attributes":{
						"POSITION":60,
						"NORMAL":61,
						"TEXCOORD_0":62,
						"COLOR_0":63,
						"COLOR_1":64
					},
					"indices":65,
					"material":10
				}
			]
		},
		{
			"name":"Plane.013",
			"primitives":[
				{
					"attributes":{
						"POSITION":66,
						"NORMAL":67,
						"TEXCOORD_0":68,
						"COLOR_0":69,
						"COLOR_1":70
					},
					"indices":71,
					"material":11
				}
			]
		}
	],
	"accessors":[
		{
			"bufferView":0,
			"componentType":5126,
			"count":3579,
			"max":[
				3.781705856323242,
				5.118462562561035,
				0.15000925958156586
			],
			"min":[
				-3.781707286834717,
				4.750168800354004,
				-0.5316933393478394
			],
			"type":"VEC3"
		},
		{
			"bufferView":1,
			"componentType":5126,
			"count":3579,
			"type":"VEC3"
		},
		{
			"bufferView":2,
			"componentType":5126,
			"count":3579,
			"type":"VEC2"
		},
		{
			"bufferView":3,
			"componentType":5121,
			"count":3579,
			"normalized":true,
			"type":"VEC4"
		},
		{
			"bufferView":4,
			"componentType":5123,
			"count":3579,
			"normalized":true,
			"type":"VEC4"
		},
		{
			"bufferView":5,
			"componentType":5123,
			"count":11328,
			"type":"SCALAR"
		},
		{
			"bufferView":6,
			"componentType":5126,
			"count":2151,
			"max":[
				0.8031031489372253,
				3.3911335468292236,
				0.6014404296875
			],
			"min":[
				-0.8042088150978088,
				2.8255929946899414,
				-0.6268452405929565
			],
			"type":"VEC3"
		},
		{
			"bufferView":7,
			"componentType":5126,
			"count":2151,
			"type":"VEC3"
		},
		{
			"bufferView":8,
			"componentType":5126,
			"count":2151,
			"type":"VEC2"
		},
		{
			"bufferView":9,
			"componentType":5121,
			"count":2151,
			"normalized":true,
			"type":"VEC4"
		},
		{
			"bufferView":10,
			"componentType":5123,
			"count":2151,
			"normalized":true,
			"type":"VEC4"
		},
		{
			"bufferView":11,
			"componentType":5123,
			"count":8124,
			"type":"SCALAR"
		},
		{
			"bufferView":12,
			"componentType":5126,
			"count":1722,
			"max":[
				1.1905040740966797,
				3.2055249214172363,
				1.6556963920593262
			],
			"min":[
				-1.1905055046081543,
				-2.013732433319092,
				0.49396467208862305
			],
			"type":"VEC3"
		},
		{
			"bufferView":13,
			"componentType":5126,
			"count":1722,
			"type":"VEC3"
		},
		{
			"bufferView":14,
			"componentType":5126,
			"count":1722,
			"type":"VEC2"
		},
		{
			"bufferView":15,
			"componentType":5121,
			"count":1722,
			"normalized":true,
			"type":"VEC4"
		},
		{
			"bufferView":16,
			"componentType":5123,
			"count":1722,
			"normalized":true,
			"type":"VEC4"
		},
		{
			"bufferView":17,
			"componentType":5123,
			"count":7692,
			"type":"SCALAR"
		},
		{
			"bufferView":18,
			"componentType":5126,
			"count":5076,
			"max":[
				2.6034533977508545,
				4.1119890213012695,
				1.6168838739395142
			],
			"min":[
				-2.603454828262329,
				-2.517284870147705,
				-2.0973739624023438
			],
			"type":"VEC3"
		},
		{
			"bufferView":19,
			"componentType":5126,
			"count":5076,
			"type":"VEC3"
		},
		{
			"bufferView":20,
			"componentType":5126,
			"count":5076,
			"type":"VEC2"
		},
		{
			"bufferView":21,
			"componentType":5121,
			"count":5076,
			"normalized":true,
			"type":"VEC4"
		},
		{
			"bufferView":22,
			"componentType":5123,
			"count":5076,
			"normalized":true,
			"type":"VEC4"
		},
		{
			"bufferView":23,
			"componentType":5123,
			"count":20094,
			"type":"SCALAR"
		},
		{
			"bufferView":24,
			"componentType":5126,
			"count":6181,
			"max":[
				0.714698076248169,
				5.276201248168945,
				0.759848952293396
			],
			"min":[
				-0.7188407778739929,
				3.2643113136291504,
				-0.6997795104980469
			],
			"type":"VEC3"
		},
		{
			"bufferView":25,
			"componentType":5126,
			"count":6181,
			"type":"VEC3"
		},
		{
			"bufferView":26,
			"componentType":5126,
			"count":6181,
			"type":"VEC2"
		},
		{
			"bufferView":27,
			"componentType":5121,
			"count":6181,
			"normalized":true,
			"type":"VEC4"
		},
		{
			"bufferView":28,
			"componentType":5123,
			"count":6181,
			"normalized":true,
			"type":"VEC4"
		},
		{
			"bufferView":29,
			"componentType":5123,
			"count":24540,
			"type":"SCALAR"
		},
		{
			"bufferView":30,
			"componentType":5126,
			"count":9258,
			"max":[
				4.443105220794678,
				4.7974982261657715,
				0.25460267066955566
			],
			"min":[
				-4.443107604980469,
				4.450529098510742,
				-0.493234246969223
			],
			"type":"VEC3"
		},
		{
			"bufferView":31,
			"componentType":5126,
			"count":9258,
			"type":"VEC3"
		},
		{
			"bufferView":32,
			"componentType":5126,
			"count":9258,
			"type":"VEC2"
		},
		{
			"bufferView":33,
			"componentType":5121,
			"count":9258,
			"normalized":true,
			"type":"VEC4"
		},
		{
			"bufferView":34,
			"componentType":5123,
			"count":9258,
			"normalized":true,
			"type":"VEC4"
		},
		{
			"bufferView":35,
			"componentType":5123,
			"count":33768,
			"type":"SCALAR"
		},
		{
			"bufferView":36,
			"componentType":5126,
			"count":8003,
			"max":[
				2.09543514251709,
				3.01690673828125,
				1.0165730714797974
			],
			"min":[
				-2.0954365730285645,
				-0.4231991767883301,
				-1.3741449117660522
			],
			"type":"VEC3"
		},
		{
			"bufferView":37,
			"componentType":5126,
			"count":8003,
			"type":"VEC3"
		},
		{
			"bufferView":38,
			"componentType":5126,
			"count":8003,
			"type":"VEC2"
		},
		{
			"bufferView":39,
			"componentType":5121,
			"count":8003,
			"normalized":true,
			"type":"VEC4"
		},
		{
			"bufferView":40,
			"componentType":5123,
			"count":8003,
			"normalized":true,
			"type":"VEC4"
		},
		{
			"bufferView":41,
			"componentType":5123,
			"count":32832,
			"type":"SCALAR"
		},
		{
			"bufferView":42,
			"componentType":5126,
			"count":2009,
			"max":[
				3.4937191009521484,
				5.078022480010986,
				0.11905017495155334
			],
			"min":[
				-3.493720531463623,
				4.391453266143799,
				-0.49124184250831604
			],
			"type":"VEC3"
		},
		{
			"bufferView":43,
			"componentType":5126,
			"count":2009,
			"type":"VEC3"
		},
		{
			"bufferView":44,
			"componentType":5126,
			"count":2009,
			"type":"VEC2"
		},
		{
			"bufferView":45,
			"componentType":5121,
			"count":2009,
			"normalized":true,
			"type":"VEC4"
		},
		{
			"bufferView":46,
			"componentType":5123,
			"count":2009,
			"normalized":true,
			"type":"VEC4"
		},
		{
			"bufferView":47,
			"componentType":5123,
			"count":7776,
			"type":"SCALAR"
		},
		{
			"bufferView":48,
			"componentType":5126,
			"count":1126,
			"max":[
				0.2285233736038208,
				3.245806932449341,
				0.6391353011131287
			],
			"min":[
				-0.22503909468650818,
				3.0099098682403564,
				0.5393575429916382
			],
			"type":"VEC3"
		},
		{
			"bufferView":49,
			"componentType":5126,
			"count":1126,
			"type":"VEC3"
		},
		{
			"bufferView":50,
			"componentType":5126,
			"count":1126,
			"type":"VEC2"
		},
		{
			"bufferView":51,
			"componentType":5121,
			"count":1126,
			"normalized":true,
			"type":"VEC4"
		},
		{
			"bufferView":52,
			"componentType":5123,
			"count":1126,
			"normalized":true,
			"type":"VEC4"
		},
		{
			"bufferView":53,
			"componentType":5123,
			"count":4536,
			"type":"SCALAR"
		},
		{
			"bufferView":54,
			"componentType":5126,
			"count":4188,
			"max":[
				0.6939576268196106,
				5.089110374450684,
				0.7316691875457764
			],
			"min":[
				-0.6937344074249268,
				3.26621150970459,
				-0.6543159484863281
			],
			"type":"VEC3"
		},
		{
			"bufferView":55,
			"componentType":5126,
			"count":4188,
			"type":"VEC3"
		},
		{
			"bufferView":56,
			"componentType":5126,
			"count":4188,
			"type":"VEC2"
		},
		{
			"bufferView":57,
			"componentType":5121,
			"count":4188,
			"normalized":true,
			"type":"VEC4"
		},
		{
			"bufferView":58,
			"componentType":5123,
			"count":4188,
			"normalized":true,
			"type":"VEC4"
		},
		{
			"bufferView":59,
			"componentType":5123,
			"count":21000,
			"type":"SCALAR"
		},
		{
			"bufferView":60,
			"componentType":5126,
			"count":6531,
			"max":[
				4.437732219696045,
				4.807377815246582,
				0.24997055530548096
			],
			"min":[
				-4.437734127044678,
				4.455550670623779,
				-0.49019870162010193
			],
			"type":"VEC3"
		},
		{
			"bufferView":61,
			"componentType":5126,
			"count":6531,
			"type":"VEC3"
		},
		{
			"bufferView":62,
			"componentType":5126,
			"count":6531,
			"type":"VEC2"
		},
		{
			"bufferView":63,
			"componentType":5121,
			"count":6531,
			"normalized":true,
			"type":"VEC4"
		},
		{
			"bufferView":64,
			"componentType":5123,
			"count":6531,
			"normalized":true,
			"type":"VEC4"
		},
		{
			"bufferView":65,
			"componentType":5123,
			"count":30516,
			"type":"SCALAR"
		},
		{
			"bufferView":66,
			"componentType":5126,
			"count":15038,
			"max":[
				3.35844087600708,
				5.442418098449707,
				1.3902608156204224
			],
			"min":[
				-3.3584423065185547,
				-2.038600444793701,
				-2.0550713539123535
			],
			"type":"VEC3"
		},
		{
			"bufferView":67,
			"componentType":5126,
			"count":15038,
			"type":"VEC3"
		},
		{
			"bufferView":68,
			"componentType":5126,
			"count":15038,
			"type":"VEC2"
		},
		{
			"bufferView":69,
			"componentType":5121,
			"count":15038,
			"normalized":true,
			"type":"VEC4"
		},
		{
			"bufferView":70,
			"componentType":5123,
			"count":15038,
			"normalized":true,
			"type":"VEC4"
		},
		{
			"bufferView":71,
			"componentType":5123,
			"count":69216,
			"type":"SCALAR"
		}
	],
	"bufferViews":[
		{
			"buffer":0,
			"byteLength":42948,
			"byteOffset":0,
			"target":34962
		},
		{
			"buffer":0,
			"byteLength":42948,
			"byteOffset":42948,
			"target":34962
		},
		{
			"buffer":0,
			"byteLength":28632,
			"byteOffset":85896,
			"target":34962
		},
		{
			"buffer":0,
			"byteLength":14316,
			"byteOffset":114528,
			"target":34962
		},
		{
			"buffer":0,
			"byteLength":28632,
			"byteOffset":128844,
			"target":34962
		},
		{
			"buffer":0,
			"byteLength":22656,
			"byteOffset":157476,
			"target":34963
		},
		{
			"buffer":0,
			"byteLength":25812,
			"byteOffset":180132,
			"target":34962
		},
		{
			"buffer":0,
			"byteLength":25812,
			"byteOffset":205944,
			"target":34962
		},
		{
			"buffer":0,
			"byteLength":17208,
			"byteOffset":231756,
			"target":34962
		},
		{
			"buffer":0,
			"byteLength":8604,
			"byteOffset":248964,
			"target":34962
		},
		{
			"buffer":0,
			"byteLength":17208,
			"byteOffset":257568,
			"target":34962
		},
		{
			"buffer":0,
			"byteLength":16248,
			"byteOffset":274776,
			"target":34963
		},
		{
			"buffer":0,
			"byteLength":20664,
			"byteOffset":291024,
			"target":34962
		},
		{
			"buffer":0,
			"byteLength":20664,
			"byteOffset":311688,
			"target":34962
		},
		{
			"buffer":0,
			"byteLength":13776,
			"byteOffset":332352,
			"target":34962
		},
		{
			"buffer":0,
			"byteLength":6888,
			"byteOffset":346128,
			"target":34962
		},
		{
			"buffer":0,
			"byteLength":13776,
			"byteOffset":353016,
			"target":34962
		},
		{
			"buffer":0,
			"byteLength":15384,
			"byteOffset":366792,
			"target":34963
		},
		{
			"buffer":0,
			"byteLength":60912,
			"byteOffset":382176,
			"target":34962
		},
		{
			"buffer":0,
			"byteLength":60912,
			"byteOffset":443088,
			"target":34962
		},
		{
			"buffer":0,
			"byteLength":40608,
			"byteOffset":504000,
			"target":34962
		},
		{
			"buffer":0,
			"byteLength":20304,
			"byteOffset":544608,
			"target":34962
		},
		{
			"buffer":0,
			"byteLength":40608,
			"byteOffset":564912,
			"target":34962
		},
		{
			"buffer":0,
			"byteLength":40188,
			"byteOffset":605520,
			"target":34963
		},
		{
			"buffer":0,
			"byteLength":74172,
			"byteOffset":645708,
			"target":34962
		},
		{
			"buffer":0,
			"byteLength":74172,
			"byteOffset":719880,
			"target":34962
		},
		{
			"buffer":0,
			"byteLength":49448,
			"byteOffset":794052,
			"target":34962
		},
		{
			"buffer":0,
			"byteLength":24724,
			"byteOffset":843500,
			"target":34962
		},
		{
			"buffer":0,
			"byteLength":49448,
			"byteOffset":868224,
			"target":34962
		},
		{
			"buffer":0,
			"byteLength":49080,
			"byteOffset":917672,
			"target":34963
		},
		{
			"buffer":0,
			"byteLength":111096,
			"byteOffset":966752,
			"target":34962
		},
		{
			"buffer":0,
			"byteLength":111096,
			"byteOffset":1077848,
			"target":34962
		},
		{
			"buffer":0,
			"byteLength":74064,
			"byteOffset":1188944,
			"target":34962
		},
		{
			"buffer":0,
			"byteLength":37032,
			"byteOffset":1263008,
			"target":34962
		},
		{
			"buffer":0,
			"byteLength":74064,
			"byteOffset":1300040,
			"target":34962
		},
		{
			"buffer":0,
			"byteLength":67536,
			"byteOffset":1374104,
			"target":34963
		},
		{
			"buffer":0,
			"byteLength":96036,
			"byteOffset":1441640,
			"target":34962
		},
		{
			"buffer":0,
			"byteLength":96036,
			"byteOffset":1537676,
			"target":34962
		},
		{
			"buffer":0,
			"byteLength":64024,
			"byteOffset":1633712,
			"target":34962
		},
		{
			"buffer":0,
			"byteLength":32012,
			"byteOffset":1697736,
			"target":34962
		},
		{
			"buffer":0,
			"byteLength":64024,
			"byteOffset":1729748,
			"target":34962
		},
		{
			"buffer":0,
			"byteLength":65664,
			"byteOffset":1793772,
			"target":34963
		},
		{
			"buffer":0,
			"byteLength":24108,
			"byteOffset":1859436,
			"target":34962
		},
		{
			"buffer":0,
			"byteLength":24108,
			"byteOffset":1883544,
			"target":34962
		},
		{
			"buffer":0,
			"byteLength":16072,
			"byteOffset":1907652,
			"target":34962
		},
		{
			"buffer":0,
			"byteLength":8036,
			"byteOffset":1923724,
			"target":34962
		},
		{
			"buffer":0,
			"byteLength":16072,
			"byteOffset":1931760,
			"target":34962
		},
		{
			"buffer":0,
			"byteLength":15552,
			"byteOffset":1947832,
			"target":34963
		},
		{
			"buffer":0,
			"byteLength":13512,
			"byteOffset":1963384,
			"target":34962
		},
		{
			"buffer":0,
			"byteLength":13512,
			"byteOffset":1976896,
			"target":34962
		},
		{
			"buffer":0,
			"byteLength":9008,
			"byteOffset":1990408,
			"target":34962
		},
		{
			"buffer":0,
			"byteLength":4504,
			"byteOffset":1999416,
			"target":34962
		},
		{
			"buffer":0,
			"byteLength":9008,
			"byteOffset":2003920,
			"target":34962
		},
		{
			"buffer":0,
			"byteLength":9072,
			"byteOffset":2012928,
			"target":34963
		},
		{
			"buffer":0,
			"byteLength":50256,
			"byteOffset":2022000,
			"target":34962
		},
		{
			"buffer":0,
			"byteLength":50256,
			"byteOffset":2072256,
			"target":34962
		},
		{
			"buffer":0,
			"byteLength":33504,
			"byteOffset":2122512,
			"target":34962
		},
		{
			"buffer":0,
			"byteLength":16752,
			"byteOffset":2156016,
			"target":34962
		},
		{
			"buffer":0,
			"byteLength":33504,
			"byteOffset":2172768,
			"target":34962
		},
		{
			"buffer":0,
			"byteLength":42000,
			"byteOffset":2206272,
			"target":34963
		},
		{
			"buffer":0,
			"byteLength":78372,
			"byteOffset":2248272,
			"target":34962
		},
		{
			"buffer":0,
			"byteLength":78372,
			"byteOffset":2326644,
			"target":34962
		},
		{
			"buffer":0,
			"byteLength":52248,
			"byteOffset":2405016,
			"target":34962
		},
		{
			"buffer":0,
			"byteLength":26124,
			"byteOffset":2457264,
			"target":34962
		},
		{
			"buffer":0,
			"byteLength":52248,
			"byteOffset":2483388,
			"target":34962
		},
		{
			"buffer":0,
			"byteLength":61032,
			"byteOffset":2535636,
			"target":34963
		},
		{
			"buffer":0,
			"byteLength":180456,
			"byteOffset":2596668,
			"target":34962
		},
		{
			"buffer":0,
			"byteLength":180456,
			"byteOffset":2777124,
			"target":34962
		},
		{
			"buffer":0,
			"byteLength":120304,
			"byteOffset":2957580,
			"target":34962
		},
		{
			"buffer":0,
			"byteLength":60152,
			"byteOffset":3077884,
			"target":34962
		},
		{
			"buffer":0,
			"byteLength":120304,
			"byteOffset":3138036,
			"target":34962
		},
		{
			"buffer":0,
			"byteLength":138432,
			"byteOffset":3258340,
			"target":34963
		}
	],
	"buffers":[
		{
			"byteLength":3396772,
			"uri":"SABER%20experiment%20.bin"
		}
	]
}
